<svg xmlns="http://www.w3.org/2000/svg" viewBox="0 0 64 64">
  <path
    d="M32 4C17.6 4 6 15.2 6 29c0 7 3 13.4 7.9 18l-2.6 11.4a2 2 0 0 0 2.8 2.3l12.6-6.1c1.7.3 3.5.4 5.3.4 14.4 0 26-11.2 26-25S46.4 4 32 4Z"
    fill="#0b0d12"
  />
  <circle cx="32" cy="29" r="16.5" fill="#2fb8ef" />
  <path
    d="M32 12.5a16.5 16.5 0 0 1 0 33 16.5 16.5 0 0 1 0-33Z"
    fill="none"
    stroke="#ffffff"
    stroke-opacity="0.55"
    stroke-width="0.75"
  />
  <ellipse cx="32" cy="29" rx="6.2" ry="16.5" fill="none" stroke="#ffffff" stroke-opacity="0.55" stroke-width="0.75" />
  <ellipse cx="32" cy="29" rx="16.5" ry="6.2" fill="none" stroke="#ffffff" stroke-opacity="0.55" stroke-width="0.75" />
  <path
    d="M22.5 21c2.4-2.2 5-1 6.4.6 1 1.1 2.6.9 3.6-.2 1.6-1.8 4.6-2.6 6.8-.6 1.7 1.6 1 3.8-.6 4.6-2 1-2 2.8-.4 3.8 2.1 1.3 2.3 4 .4 5.6-1.6 1.3-1 3.2.6 3.8 1.8.7 2 2.6.6 3.8-1.9 1.6-5.2 1.4-6.8-.4-1-1.1-2.6-1-3.6 0-1.6 1.6-4.6 1.8-6.4-.2-1.5-1.7-.7-3.6 1-4.2 1.8-.7 1.8-2.6.2-3.8-2-1.5-2-4.1 0-5.6 1.6-1.2 1.4-3-.4-3.8-1.6-.7-1.9-2.4-1.4-3.4Z"
    fill="#ffffff"
    fill-opacity="0.92"
  />
</svg>
